<svg version="1.1" xmlns="http://www.w3.org/2000/svg" width="1024" height="1024" viewBox="0 0 1024 1024">
  <rect width="1024" height="1024" rx="224" fill="#07111f" />
  <path fill="#ffffff" d="M689.103455,808.198479 C645.117615,830.074066 599.242493,842.675720 550.810425,846.821899 C485.581299,852.405029 422.964417,842.034668 363.768890,814.811768 C280.676208,776.600769 220.909897,715.921143 190.434601,628.169617 C174.170731,581.351562 165.646210,533.499573 167.399155,483.916962 C169.326691,429.379883 184.466721,378.382568 209.315109,330.128021 C238.070953,274.272888 279.710175,230.318390 333.474152,198.002563 C370.849365,175.525391 411.333221,161.482132 454.291473,153.411087 C519.227051,141.212311 582.463867,147.830811 644.311096,168.915268 C690.059998,184.510178 730.285339,209.687408 765.280670,243.393280 C818.117310,294.288452 849.948120,356.492188 863.932739,427.700500 C874.838013,483.472626 872.125610,539.320129 856.944824,594.257202 C845.976318,633.930664 820.018494,660.057434 782.814941,676.011414 C747.560547,691.129578 710.987549,699.675537 672.576111,698.954224 C661.201416,698.741760 649.748352,698.017456 638.581787,695.316528 C636.153625,694.729370 633.236267,694.424133 632.510742,691.486816 C631.702942,688.216187 634.759583,687.219421 636.750000,685.917725 C661.314941,669.862244 683.687622,651.358765 701.685242,627.968262 C735.365906,584.287842 749.784180,534.818787 745.969055,479.909241 C742.849182,434.985474 728.665710,393.969666 701.082520,358.175934 C665.272888,311.744110 618.212036,282.272278 560.275024,273.559326 C464.801056,259.195435 386.476410,289.529663 330.002411,369.532471 C310.375824,397.341309 299.967468,429.220703 295.101196,462.852875 C286.898804,519.500549 296.128113,573.129333 327.384918,621.251343 C366.129242,680.857361 421.208710,715.447510 492.876495,722.269287 C516.161133,724.488831 539.014526,722.484863 561.649536,717.193665 C568.623718,715.563965 575.296082,716.746399 581.980286,718.100586 C611.910583,724.165588 641.956055,728.624207 672.647827,728.628723 C707.386047,728.633850 740.696411,721.130493 773.699951,711.463501 C782.476074,708.890015 791.142334,705.944519 799.882263,703.244080 C802.511841,702.432068 805.580200,701.038208 807.637329,703.794250 C809.759949,706.638062 807.309937,709.061584 805.734314,711.286743 C788.112732,736.164795 766.984131,757.633118 742.732910,776.088623 C726.099426,788.742371 708.735596,800.177979 689.103455,808.198479 z"/>
</svg>